<?xml version="1.0"?>
<svg xmlns="http://www.w3.org/2000/svg" xmlns:xlink="http://www.w3.org/1999/xlink" version="1.1" id="Capa_1" x="0px" y="0px" viewBox="0 0 480.131 480.131" style="enable-background:new 0 0 480.131 480.131;" xml:space="preserve" width="512px" height="512px" class=""><g><g>
	<g>
		<path d="M392.131,0.131c-48.601,0-88,39.399-88,88s39.399,88,88,88c48.601,0,88-39.399,88-88    C480.076,39.553,440.709,0.186,392.131,0.131z M392.131,160.131c-39.764,0-72-32.236-72-72c0-39.765,32.236-72,72-72    c39.765,0,72,32.235,72,72C464.086,127.877,431.877,160.086,392.131,160.131z" data-original="#000000" class="active-path" data-old_color="#000000" fill="#FFFFFF"/>
	</g>
</g><g>
	<g>
		<path d="M392.131,64.131c-13.255,0-24,10.745-24,24s10.745,24,24,24s24-10.745,24-24C416.117,74.882,405.38,64.146,392.131,64.131    z M392.131,96.131c-4.418,0-8-3.582-8-8s3.582-8,8-8s8,3.582,8,8C400.127,92.548,396.548,96.127,392.131,96.131z" data-original="#000000" class="active-path" data-old_color="#000000" fill="#FFFFFF"/>
	</g>
</g><g>
	<g>
		<path d="M392.131,32.131c-30.928,0-56,25.072-56,56c0,30.928,25.072,56,56,56c30.928,0,56-25.072,56-56    C448.095,57.218,423.044,32.167,392.131,32.131z M392.131,128.131c-22.091,0-40-17.909-40-40s17.909-40,40-40    c22.091,0,40,17.909,40,40C432.105,110.212,414.212,128.105,392.131,128.131z" data-original="#000000" class="active-path" data-old_color="#000000" fill="#FFFFFF"/>
	</g>
</g><g>
	<g>
		<path d="M270.374,115.129c-0.963-1.202-2.252-2.1-3.712-2.588l-48-16c-4.193-1.397-8.724,0.87-10.121,5.063    c-0.412,1.237-0.516,2.557-0.301,3.844l2.816,16.892L89.345,143.793l-29.636-14.818l-7.156,14.313l20.422,10.211l-21.641,16.234    l9.594,12.797l30.466-22.85l42.984-7.577l-12.247,61.239c-1.732-4.346-4.206-8.357-7.313-11.856    c-7.106-8.817-17.975-13.738-29.289-13.262c-19.816,1.421-34.727,18.637-33.306,38.453c0.582,8.108,3.892,15.78,9.392,21.766    l-17.063,8.531c-1.64,0.819-2.947,2.178-3.703,3.848l-40,88c-1.626,3.569-0.421,7.791,2.844,9.965l24,16    c3.679,2.451,8.647,1.455,11.098-2.224c0.183-0.274,0.348-0.56,0.496-0.855l24.844-49.691v150.113    c-0.001,4.417,3.579,7.999,7.996,8c0.001,0,0.003,0,0.004,0h32c4.212-0.001,7.703-3.266,7.984-7.469l4.773-71.641l19.516,73.172    c0.932,3.499,4.098,5.935,7.719,5.938c0.656,0.002,1.309-0.078,1.945-0.238l32-8c4.144-1.035,6.745-5.143,5.906-9.332    L144.818,266.76l3.969-3.973c6.976-6.958,11.78-15.792,13.828-25.43l20.098-93.774l30.973-5.46l2.554,15.324    c0.727,4.358,4.851,7.302,9.209,6.574c1.347-0.225,2.615-0.791,3.682-1.645l40-32C272.58,123.614,273.137,118.578,270.374,115.129    z M146.975,234.01c-1.412,6.618-4.712,12.684-9.5,17.465l-7,7c-1.891,1.892-2.712,4.604-2.188,7.227l38.5,192.519l-16.953,4.238    l-29.976-112.391c-1.141-4.268-5.526-6.804-9.794-5.664c-3.309,0.884-5.688,3.777-5.917,7.195l-7.5,112.531H80.131v-176    c-0.001-4.419-3.584-8-8.003-7.999c-3.029,0.001-5.797,1.712-7.153,4.421l-35.945,71.895l-10.797-7.199l36.008-79.227    l26.234-13.117c3.952-1.974,5.555-6.779,3.581-10.731c-0.835-1.672-2.229-2.998-3.94-3.75    c-10.112-4.416-14.731-16.193-10.315-26.306c2.97-6.802,9.466-11.397,16.869-11.932c6.265-0.118,12.213,2.754,16.016,7.734    c4.614,4.255,6.483,10.721,4.852,16.781c-1.009,4.304,1.662,8.61,5.965,9.62c1.819,0.427,3.73,0.203,5.402-0.631l12.805-6.402    c2.208-1.104,3.782-3.166,4.266-5.586l15.316-76.58l14.421-2.542L146.975,234.01z M229.78,137.365l-3.57-21.441l21.445,7.145    L229.78,137.365z" data-original="#000000" class="active-path" data-old_color="#000000" fill="#FFFFFF"/>
	</g>
</g><g>
	<g>
		<rect x="448.131" y="432.131" width="16" height="16" data-original="#000000" class="active-path" data-old_color="#000000" fill="#FFFFFF"/>
	</g>
</g><g>
	<g>
		<rect x="448.131" y="464.131" width="16" height="16" data-original="#000000" class="active-path" data-old_color="#000000" fill="#FFFFFF"/>
	</g>
</g><g>
	<g>
		<rect x="464.131" y="448.131" width="16" height="16" data-original="#000000" class="active-path" data-old_color="#000000" fill="#FFFFFF"/>
	</g>
</g><g>
	<g>
		<rect x="432.131" y="448.131" width="16" height="16" data-original="#000000" class="active-path" data-old_color="#000000" fill="#FFFFFF"/>
	</g>
</g><g>
	<g>
		<rect x="15.865" y="0.128" transform="matrix(0.9999 -0.0161 0.0161 0.9999 -0.1278 0.3855)" width="16" height="16" data-original="#000000" class="active-path" data-old_color="#000000" fill="#FFFFFF"/>
	</g>
</g><g>
	<g>
		<rect x="16.372" y="32.132" transform="matrix(0.9999 -0.0161 0.0161 0.9999 -0.6433 0.3978)" width="16" height="16" data-original="#000000" class="active-path" data-old_color="#000000" fill="#FFFFFF"/>
	</g>
</g><g>
	<g>
		<rect x="32.135" y="15.868" transform="matrix(0.9999 -0.0166 0.0166 0.9999 -0.3906 0.6694)" width="16" height="16" data-original="#000000" class="active-path" data-old_color="#000000" fill="#FFFFFF"/>
	</g>
</g><g>
	<g>
		<rect x="0.132" y="16.367" transform="matrix(0.9999 -0.0166 0.0166 0.9999 -0.4033 0.1383)" width="16" height="16" data-original="#000000" class="active-path" data-old_color="#000000" fill="#FFFFFF"/>
	</g>
</g><g>
	<g>
		<rect x="280.131" y="256.131" width="16" height="16" data-original="#000000" class="active-path" data-old_color="#000000" fill="#FFFFFF"/>
	</g>
</g><g>
	<g>
		<rect x="280.131" y="288.131" width="16" height="16" data-original="#000000" class="active-path" data-old_color="#000000" fill="#FFFFFF"/>
	</g>
</g><g>
	<g>
		<rect x="296.131" y="272.131" width="16" height="16" data-original="#000000" class="active-path" data-old_color="#000000" fill="#FFFFFF"/>
	</g>
</g><g>
	<g>
		<rect x="264.131" y="272.131" width="16" height="16" data-original="#000000" class="active-path" data-old_color="#000000" fill="#FFFFFF"/>
	</g>
</g></g> </svg>
