<?xml version="1.0"?>
<svg xmlns="http://www.w3.org/2000/svg" id="Capa_1" enable-background="new 0 0 512 512" height="512px" viewBox="0 0 512 512" width="512px" class=""><g><g><path d="m193.998 279.539c2.957-2.9 3.002-7.649.101-10.606-1.403-1.43-2.884-2.823-4.402-4.143-22.043-19.146-34.762-46.853-34.895-76.014-.253-55.33 44.53-100.974 99.83-101.748 21.248-.297 41.692 5.915 59.083 17.971 3.404 2.361 8.076 1.514 10.437-1.892 2.359-3.404 1.513-8.076-1.892-10.437-19.974-13.846-43.438-20.974-67.838-20.641-63.492.889-114.91 53.291-114.62 116.814.153 33.481 14.754 65.29 40.058 87.27 2.662 2.772 8.575 8.682 14.138 3.426z" data-original="#000000" class="active-path" data-old_color="#000000" fill="#FFFFFF"/><path d="m347.432 116.337c-2.565-3.254-7.282-3.809-10.533-1.244-3.253 2.565-3.81 7.281-1.244 10.533 14.207 18.011 21.716 39.684 21.716 62.677 0 29.534-12.855 57.53-35.271 76.812-16.279 14.002-25.615 34.579-25.615 56.455v7.085h-32.306v-90.792l18.543-18.543c2.929-2.93 2.929-7.678 0-10.607-2.93-2.928-7.678-2.928-10.607 0l-15.435 15.436-28.942-28.942c-2.929-2.928-7.678-2.928-10.606 0-2.929 2.93-2.929 7.678 0 10.607l32.048 32.048v90.793h-33.494v-7.09c0-7.289-1.064-14.526-3.163-21.51-1.193-3.968-5.376-6.216-9.341-5.024-3.967 1.192-6.216 5.374-5.024 9.341 1.678 5.583 2.528 11.367 2.528 17.193v7.09h-6.096c-4.142 0-7.5 3.357-7.5 7.5s3.358 7.5 7.5 7.5h6.096v18.103h-6.096c-4.142 0-7.5 3.357-7.5 7.5s3.358 7.5 7.5 7.5h6.096v10.776c0 14.735 11.651 26.798 26.224 27.468v9.498c0 16.088 13.088 29.177 29.176 29.177s29.177-13.089 29.177-29.177v-9.498c14.572-.67 26.223-12.733 26.223-27.468v-10.776h6.097c4.143 0 7.5-3.357 7.5-7.5s-3.357-7.5-7.5-7.5h-6.097v-18.103h6.097c4.143 0 7.5-3.357 7.5-7.5s-3.357-7.5-7.5-7.5h-6.097v-7.085c0-17.501 7.435-33.934 20.396-45.084 25.731-22.133 40.489-54.274 40.489-88.183 0-26.398-8.624-51.283-24.939-71.966zm-91.347 322.339c-7.817 0-14.176-6.359-14.176-14.177v-9.466h28.353v9.466c0 7.817-6.359 14.177-14.177 14.177zm40.4-51.143c0 6.893-5.607 12.5-12.5 12.5h-55.799c-6.893 0-12.5-5.607-12.5-12.5v-10.776h80.799zm-80.799-25.776v-18.103h80.799v18.103z" data-original="#000000" class="active-path" data-old_color="#000000" fill="#FFFFFF"/><ellipse cx="254.992" cy="12.658" rx="12.658" ry="12.658" transform="matrix(.257 -.967 .967 .257 177.31 255.859)" data-original="#000000" class="active-path" data-old_color="#000000" fill="#FFFFFF"/><circle cx="254.992" cy="499.342" r="12.658" data-original="#000000" class="active-path" data-old_color="#000000" fill="#FFFFFF"/><ellipse cx="204.834" cy="18.135" rx="12.658" ry="12.658" data-original="#000000" class="active-path" data-old_color="#000000" fill="#FFFFFF"/><ellipse cx="156.932" cy="33.94" rx="12.658" ry="12.658" data-original="#000000" class="active-path" data-old_color="#000000" fill="#FFFFFF"/><ellipse cx="113.337" cy="59.341" rx="12.658" ry="12.658" data-original="#000000" class="active-path" data-old_color="#000000" fill="#FFFFFF"/><path d="m67.521 102.659c5.195 4.678 13.199 4.258 17.877-.937s4.258-13.199-.937-17.877-13.199-4.258-17.877.937-4.258 13.199.937 17.877z" data-original="#000000" class="active-path" data-old_color="#000000" fill="#FFFFFF"/><ellipse cx="46.503" cy="134.185" rx="12.658" ry="12.658" data-original="#000000" class="active-path" data-old_color="#000000" fill="#FFFFFF"/><ellipse cx="26.174" cy="180.358" rx="12.657" ry="12.657" data-original="#000000" class="active-path" data-old_color="#000000" fill="#FFFFFF"/><ellipse cx="15.893" cy="229.744" rx="12.657" ry="12.657" data-original="#000000" class="active-path" data-old_color="#000000" fill="#FFFFFF"/><circle cx="47.516" cy="375.509" r="12.658" data-original="#000000" class="active-path" data-old_color="#000000" fill="#FFFFFF"/><circle cx="77.34" cy="416.199" r="12.658" data-original="#000000" class="active-path" data-old_color="#000000" fill="#FFFFFF"/><ellipse cx="114.976" cy="449.814" rx="12.658" ry="12.658" transform="matrix(.428 -.904 .904 .428 -340.747 361.109)" data-original="#000000" class="active-path" data-old_color="#000000" fill="#FFFFFF"/><ellipse cx="158.751" cy="474.861" rx="12.658" ry="12.658" transform="matrix(.98 -.197 .197 .98 -90.48 40.604)" data-original="#000000" class="active-path" data-old_color="#000000" fill="#FFFFFF"/><path d="m209.445 477.85c-6.838-1.453-13.56 2.912-15.013 9.75s2.912 13.56 9.75 15.013c6.838 1.454 13.56-2.912 15.013-9.75s-2.912-13.56-9.75-15.013z" data-original="#000000" class="active-path" data-old_color="#000000" fill="#FFFFFF"/><ellipse cx="307.148" cy="489.804" rx="12.658" ry="12.658" data-original="#000000" class="active-path" data-old_color="#000000" fill="#FFFFFF"/><path d="m349.925 462.458c-6.387 2.844-9.259 10.326-6.415 16.712 2.843 6.387 10.326 9.259 16.713 6.415 6.386-2.844 9.259-10.326 6.415-16.712s-10.326-9.258-16.713-6.415z" data-original="#000000" class="active-path" data-old_color="#000000" fill="#FFFFFF"/><ellipse cx="398.648" cy="448.634" rx="12.658" ry="12.658" data-original="#000000" class="active-path" data-old_color="#000000" fill="#FFFFFF"/><path d="m489.73 315.551c-6.649-2.16-13.79 1.478-15.95 8.127s1.478 13.79 8.127 15.95 13.79-1.478 15.95-8.127c2.161-6.649-1.478-13.79-8.127-15.95z" data-original="#000000" class="active-path" data-old_color="#000000" fill="#FFFFFF"/><path d="m497.425 265.61c-6.953-.731-13.181 4.313-13.912 11.266s4.313 13.181 11.266 13.912 13.181-4.313 13.912-11.266-4.313-13.181-11.266-13.912z" data-original="#000000" class="active-path" data-old_color="#000000" fill="#FFFFFF"/><path d="m494.568 215.161c-6.953.731-11.996 6.959-11.266 13.912.731 6.953 6.959 11.996 13.912 11.266 6.953-.731 11.996-6.959 11.266-13.912-.731-6.953-6.959-11.997-13.912-11.266z" data-original="#000000" class="active-path" data-old_color="#000000" fill="#FFFFFF"/><path d="m489.108 190.485c6.649-2.16 10.287-9.302 8.127-15.95s-9.302-10.287-15.95-8.127-10.287 9.302-8.127 15.95 9.301 10.288 15.95 8.127z" data-original="#000000" class="active-path" data-old_color="#000000" fill="#FFFFFF"/><circle cx="397.028" cy="58.154" r="12.658" data-original="#000000" class="active-path" data-old_color="#000000" fill="#FFFFFF"/><ellipse cx="353.236" cy="33.116" rx="12.658" ry="12.658" transform="matrix(.441 -.898 .898 .441 167.804 335.585)" data-original="#000000" class="active-path" data-old_color="#000000" fill="#FFFFFF"/><ellipse cx="305.192" cy="17.727" rx="12.658" ry="12.658" transform="matrix(.183 -.983 .983 .183 231.913 314.521)" data-original="#000000" class="active-path" data-old_color="#000000" fill="#FFFFFF"/><path d="m409.357 107.495c1.143 6.738 4.646 11.324 10.315 16.969 5.243 5.22 21.414 20.688 28.126 27.099 3.248 2.86 9.043 4.517 14.492-.037 7.043-6.789 23.883-23.043 28.148-27.327 5.175-5.198 10.468-11.886 10.482-22.065.02-12.309-7.792-23.243-19.438-27.21-.001 0-.001 0-.002 0-2.963-1.009-6.063-1.522-9.208-1.526-.016 0-.03 0-.046 0-6.322 0-12.372 2.051-17.342 5.832-5.039-3.8-11.187-5.824-17.565-5.756-8.358.093-16.229 3.827-21.591 10.248-5.495 6.579-7.818 15.245-6.371 23.773zm17.885-14.159c1.835-2.197 5.774-4.756 10.396-4.864 3.501 0 6.825 1.314 9.377 3.712 4.451 4.177 11.381 4.172 15.777-.015 2.557-2.434 5.907-3.772 9.438-3.772 6.047-.457 14.005 6.213 13.691 13.714-.006 4.017-1.548 6.92-6.112 11.505-3.658 3.674-17.443 16.995-24.799 24.092-7.647-7.313-20.301-19.439-24.755-23.873-7.72-7.04-7.98-12.762-3.013-20.499z" data-original="#000000" class="active-path" data-old_color="#000000" fill="#FFFFFF"/><path d="m462.162 349.09-21.279-3.092-9.517-19.282c-2.119-4.296-6.411-6.964-11.201-6.965-.001 0-.001 0-.002 0-4.789 0-9.082 2.668-11.203 6.964l-5.998 12.153c-1.833 3.715-.308 8.212 3.406 10.045 3.716 1.833 8.212.308 10.045-3.406l3.75-7.599 7.852 15.908c1.819 3.689 5.336 6.244 9.407 6.836l17.557 2.551-12.705 12.385c-2.943 2.87-4.286 7.003-3.592 11.058l2.999 17.486-15.704-8.256c-3.642-1.915-7.987-1.914-11.627 0l-15.703 8.256 2.998-17.484c.696-4.053-.646-8.188-3.592-11.06l-14.759-14.387c1.418-2.675 1.122-6.059-.996-8.467-2.736-3.11-7.475-3.414-10.585-.679-2.609 2.295-4.157 5.613-4.246 9.105-.09 3.498 1.251 6.779 3.773 9.237l15.398 15.01-3.635 21.193c-.811 4.721 1.093 9.403 4.969 12.219 3.821 1.855 5.97 3.805 13.158.952l19.032-10.006 19.033 10.006c4.241 2.229 9.281 1.864 13.156-.951 3.876-2.815 5.78-7.497 4.971-12.219l-3.635-21.193 15.398-15.011c3.431-3.344 4.642-8.252 3.16-12.808-1.479-4.554-5.343-7.811-10.083-8.499z" data-original="#000000" class="active-path" data-old_color="#000000" fill="#FFFFFF"/><path d="m103.095 301.34h.011zm20.118-10.943c0-4.048-1.185-7.232-2.632-9.613.763-2.059 1.165-4.259 1.165-6.489 0-6.178-3.034-11.943-8.096-15.429-3.054-2.099-6.61-3.204-10.286-3.204h-.08c-4.842.02-13.892.04-19.357.05.161-1.276.301-2.562.422-3.847.603-6.69.663-15.389-4.309-23.455-5.756-9.332-15.57-12.918-25.615-9.362-4.591 1.627-7.021 5.434-6.489 10.155.623 5.746 1.095 10.567 1.416 15.459.02.301-.02.563-.04.683-2.833 5.485-5.756 11.049-8.589 16.424-1.647 3.124-3.285 6.248-4.922 9.372-7.554 0-15.841-.01-19.106-.05h-.161c-6.77 0-12.275 5.505-12.275 12.275v40.341c0 3.305 1.296 6.409 3.646 8.729 2.31 2.29 5.374 3.546 8.659 3.546h.151c3.305-.05 12.154-.06 18.523-.06 9.171 0 18.021.02 18.021.02.271-.01.542-.02.814-.04 13.46.111 27.101.1 40.552-.04 4.852-.04 9.493-2.17 12.737-5.846 2.973-3.365 4.53-7.715 4.37-12.104 5.334-4.199 6.961-10.407 6.68-15.801 2.561-2.684 4.801-6.601 4.801-11.714zm-16.323 1.818c-3.666 1.557-5.163 5.324-3.807 9.091 1.266 4.329-1.286 5.233-2.25 5.575-3.626 1.286-5.695 5.103-4.812 8.84.1.432.221.864.331 1.286.131.462.281 1.035.311 1.296.07.603-.151 1.236-.593 1.738-.301.342-.824.743-1.597.753-13.641.141-27.483.151-41.124.03h-.07c-.281 0-.563.02-.834.05-2.441-.01-9.714-.02-17.207-.02-5.063 0-11.682 0-15.911.03v-34.705c5.193.03 14.083.04 21.054.03 2.813 0 5.384-1.567 6.68-4.068 2.31-4.46 4.651-8.9 6.991-13.35 2.873-5.454 5.846-11.1 8.739-16.705 1.657-3.255 1.708-6.68 1.587-8.418-.221-3.506-.522-6.951-.894-10.688 1.236.402 2.521 1.376 3.737 3.345 2.109 3.415 2.722 7.524 2.12 14.174-.231 2.551-.593 5.153-.974 7.905-.181 1.266-.362 2.561-.532 3.867-.281 2.15.382 4.319 1.808 5.947 1.436 1.627 3.496 2.562 5.665 2.562h6.63c4.972 0 15.891-.03 21.406-.05.643.03 1.225.191 1.758.553 1.426.974 1.577 2.431 1.577 3.013 0 .623-.161 1.547-.904 2.401-1.537 1.728-2.481 3.897-2.059 6.178.412 2.23 1.517 3.978 3.476 5.063.331.301.954 1.065.954 2.461-.001.952-.935 1.615-1.256 1.816z" data-original="#000000" class="active-path" data-old_color="#000000" fill="#FFFFFF"/></g></g> </svg>
