<svg height="472pt" viewBox="0 0 472 472" width="472pt" xmlns="http://www.w3.org/2000/svg"><path d="m104 432c0 17.671875 14.328125 32 32 32h208c17.671875 0 32-14.328125 32-32v-32h-272zm0 0" fill="#e0e0de"/><path d="m104 48h272v352h-272zm0 0" fill="#60d1e0"/><path d="m344 0h-208c-17.671875 0-32 14.328125-32 32v16h272v-16c0-17.671875-14.328125-32-32-32zm0 0" fill="#e0e0de"/><path d="m232 424h16v16h-16zm0 0" fill="#b0b0ae"/><path d="m104 360v40h272v-312zm0 0" fill="#5ac6d4"/><path d="m208 192v176h64v-104h32v-72c0-17.671875-14.328125-32-32-32h-96v-48h-32v64c0 8.835938 7.164062 16 16 16zm0 0" fill="#348fd9"/><path d="m240 160c-17.671875 0-32-14.328125-32-32v-16c0-17.671875 14.328125-32 32-32s32 14.328125 32 32v16c0 17.671875-14.328125 32-32 32zm0 0" fill="#348fd9"/><path d="m232 264h16v104h-16zm0 0" fill="#2a71ad"/><path d="m264 192h16v72h-16zm0 0" fill="#2a71ad"/><path d="m376 216 36.207031 43.679688c12.761719 14.582031 19.792969 33.304687 19.792969 52.679687v159.640625h-56zm0 0" fill="#fec9a3"/><path d="m392 336-84-84c-11.042969-11.046875-28.957031-11.046875-40 0-11.046875 11.042969-11.046875 28.957031 0 40l68 68-6.585938 11.527344c-15.339843 26.84375-12.726562 60.332031 6.585938 84.472656v16h56zm0 0" fill="#fec9a3"/><path d="m176 128-112 16v-80l112 24zm0 0" fill="#f35244"/><g fill="#60d1e0"><path d="m6.058594 71.761719 3.878906-15.519531 32 8-3.878906 15.519531zm0 0"/><path d="m6.058594 136.230469 32-7.988281 3.875 15.523437-32 7.988281zm0 0"/><path d="m0 96h32v16h-32zm0 0"/></g><path d="m344 144h16l-8 40 64-40h24c17.671875 0 32-14.328125 32-32v-80c0-17.671875-14.328125-32-32-32h-96c-17.671875 0-32 14.328125-32 32v80c0 17.671875 14.328125 32 32 32zm0 0" fill="#348fd9"/><path d="m376 56 16-24 16 24h32l-24 24 8 32-32-16-32 16 8-32-24-24zm0 0" fill="#ffb531"/></svg>